<svg t="1756814666818" class="icon" viewBox="0 0 1024 1024" version="1.1" xmlns="http://www.w3.org/2000/svg" p-id="3717" width="200" height="200"><path d="M1023.329187 497.980365a46.683374 46.683374 0 0 1-1.279497 14.988397l-92.123809 424.354432a45.476991 45.476991 0 0 1-6.10503 13.818572 129.083003 129.083003 0 0 1-44.818964 51.984149 121.588804 121.588804 0 0 1-67.703688 20.398843v-0.255899L219.366173 1023.012959a39.335404 39.335404 0 0 1-12.648746 0H49.302698a41.638499 41.638499 0 0 1-6.799615 0.584913A43.576024 43.576024 0 0 1 0.023771 979.034808L0.389342 444.899504a43.612581 43.612581 0 0 1 42.662097-44.489951 40.834244 40.834244 0 0 1 5.191104 0.365571l141.512405-0.329014v-0.840812a262.004498 262.004498 0 0 0 237.036022-258.49502 138.551283 138.551283 0 0 1-0.584913-11.734818 126.816465 126.816465 0 0 1 124.038128-129.412017 125.207954 125.207954 0 0 1 120.63832 100.239477h0.621471a485.185391 485.185391 0 0 1-14.147585 255.533898l237.986505 0.255899a37.617222 37.617222 0 0 1 6.434044 0.584913 125.427296 125.427296 0 0 1 102.835029 62.147014 135.992289 135.992289 0 0 1 18.607547 79.255721M85.238294 933.959944h85.25108l0.329014-444.533933-85.177966 0.219343-0.402128 444.278033z m847.39281-468.734711a40.578344 40.578344 0 0 0-37.178537-20.216058l-300.828103-0.329014a43.576024 43.576024 0 0 1-42.62554-44.48995 45.952233 45.952233 0 0 1 4.459962-19.704259l-0.475242-0.365571a387.724251 387.724251 0 0 0 36.557067-107.221877h0.548356a336.836814 336.836814 0 0 0 5.593231-70.116454 425.122131 425.122131 0 0 0-6.434043-69.823998h-0.329014v-1.937524a39.920317 39.920317 0 1 0-79.76752 0v2.851451H511.822708a398.069901 398.069901 0 0 1-5.958802 70.774481 333.729463 333.729463 0 0 1-10.418764 40.797687 346.560994 346.560994 0 0 1-238.900432 233.160972L255.923239 934.033058l555.667417 0.219343a39.664418 39.664418 0 0 1 5.520117 0.438685 38.458034 38.458034 0 0 0 16.048552-6.105031 41.090143 41.090143 0 0 0 15.390525-19.046231l88.687445-408.56178h-0.329014a44.380279 44.380279 0 0 0-4.204063-35.716254" p-id="3718"></path></svg>